# xmcd
#
# Track frame offsets:
# 150
# 15722
# 28125
# 41664
# 54837
# 66829
# 81811
# 91406
# 107345
# 120923
# 131018
# 150299
# 163655
#
# Disc length: 2312 seconds
#
# Revision: 0
# Processed by: cddbd v1.4PL0 Copyright (c) Steve Scherf et al.
# Submitted via: Audion 3.0.2 (http://www.panic.com/audion/)
#
DISCID=9509060d
DTITLE=The Creeps - Enjoy The Creeps
DYEAR=1900
DGENRE=
TTITLE0=Rattlesnake Shake
TTITLE1=Just What I Need
TTITLE2=The Creep
TTITLE3=Darling
TTITLE4=Hi, Hi, Pretty Girl
TTITLE5=Down At The Nightclub
TTITLE6=Out Of My Mind
TTITLE7=Ain´t No Square
TTITLE8=Come Back, Baby
TTITLE9=City Of People
TTITLE10=Maintaining My Cool
TTITLE11=She´s Gone
TTITLE12=Magic Girl
EXTD=
EXTT0=
EXTT1=
EXTT2=
EXTT3=
EXTT4=
EXTT5=
EXTT6=
EXTT7=
EXTT8=
EXTT9=
EXTT10=
EXTT11=
EXTT12=
PLAYORDER=
